<?xml version="1.0" standalone="no"?>
<!DOCTYPE svg PUBLIC "-//W3C//DTD SVG 20010904//EN"
 "http://www.w3.org/TR/2001/REC-SVG-20010904/DTD/svg10.dtd">
<svg version="1.0" xmlns="http://www.w3.org/2000/svg"
 width="660.000000pt" height="660.000000pt" viewBox="0 0 660.000000 660.000000"
 preserveAspectRatio="xMidYMid meet">
<metadata>
Created by potrace 1.11, written by Peter Selinger 2001-2013
</metadata>
<g transform="translate(0.000000,660.000000) scale(0.100000,-0.100000)"
fill="#000000" stroke="none">
<path d="M3110 6419 c-148 -152 -1337 -1348 -2743 -2759 l-364 -365 259 -257
260 -258 1385 1385 c761 762 1391 1385 1398 1385 7 0 115 -102 239 -227 125
-126 655 -659 1179 -1186 523 -526 1039 -1045 1144 -1151 106 -107 198 -198
203 -201 6 -4 32 14 58 39 63 62 348 338 417 404 30 29 55 55 55 58 0 3 -110
117 -245 252 -2762 2778 -3045 3062 -3058 3061 -7 -1 -91 -82 -187 -180z"/>
<path d="M3213 4550 c-43 -44 -439 -443 -880 -888 -442 -444 -923 -928 -1069
-1075 -222 -223 -264 -270 -254 -282 7 -8 526 -530 1154 -1158 l1141 -1144
235 233 c487 485 2056 2051 2068 2066 10 13 -159 186 -1142 1172 -635 636
-1159 1156 -1164 1156 -6 0 -46 -36 -89 -80z m238 -1099 c76 -76 139 -144 139
-150 0 -6 -42 -54 -92 -106 -51 -51 -111 -113 -133 -137 -58 -63 -62 -64 -98
-29 -18 18 -83 81 -144 140 -62 60 -113 116 -113 124 0 18 270 296 288 296 7
1 76 -62 153 -138z m-838 -786 c62 -63 180 -185 262 -270 340 -352 413 -425
424 -425 7 0 191 178 408 395 217 217 401 395 408 395 21 0 435 -422 435 -444
0 -13 -226 -241 -1043 -1052 l-212 -211 -616 616 c-339 339 -619 626 -623 639
-8 24 -10 21 169 207 61 63 142 148 180 189 39 41 76 75 83 75 7 1 64 -51 125
-114z"/>
</g>
</svg>
